<mxfile host="app.diagrams.net" modified="2022-03-10T05:36:45.908Z" agent="5.0 (Windows NT 10.0; Win64; x64) AppleWebKit/537.36 (KHTML, like Gecko) Chrome/99.0.4844.51 Safari/537.36" etag="0i02dxVMfKINpCnd-BIP" version="17.1.0" type="github">
  <diagram id="t9MFBhJtZEPr1Hz7-q2i" name="Page-1">
    <mxGraphModel dx="1504" dy="644" grid="1" gridSize="10" guides="1" tooltips="1" connect="1" arrows="1" fold="1" page="1" pageScale="1" pageWidth="850" pageHeight="1100" math="0" shadow="0">
      <root>
        <mxCell id="0" />
        <mxCell id="1" parent="0" />
        <mxCell id="MMkmD4ZZ_CNNErBNcf6l-27" value="用户" style="swimlane;whiteSpace=wrap;startSize=23;strokeColor=#000000;" vertex="1" parent="1">
          <mxGeometry x="444.5" y="128" width="275.5" height="570" as="geometry" />
        </mxCell>
        <mxCell id="MMkmD4ZZ_CNNErBNcf6l-51" style="edgeStyle=orthogonalEdgeStyle;rounded=0;orthogonalLoop=1;jettySize=auto;html=1;exitX=0.5;exitY=1;exitDx=0;exitDy=0;entryX=0.5;entryY=0;entryDx=0;entryDy=0;" edge="1" parent="MMkmD4ZZ_CNNErBNcf6l-27" source="MMkmD4ZZ_CNNErBNcf6l-43" target="MMkmD4ZZ_CNNErBNcf6l-46">
          <mxGeometry relative="1" as="geometry" />
        </mxCell>
        <mxCell id="MMkmD4ZZ_CNNErBNcf6l-43" value="开始" style="rounded=1;whiteSpace=wrap;html=1;" vertex="1" parent="MMkmD4ZZ_CNNErBNcf6l-27">
          <mxGeometry x="77.88" y="52" width="120" height="32" as="geometry" />
        </mxCell>
        <mxCell id="MMkmD4ZZ_CNNErBNcf6l-52" style="edgeStyle=orthogonalEdgeStyle;rounded=0;orthogonalLoop=1;jettySize=auto;html=1;exitX=0.5;exitY=1;exitDx=0;exitDy=0;entryX=0.5;entryY=0;entryDx=0;entryDy=0;" edge="1" parent="MMkmD4ZZ_CNNErBNcf6l-27" source="MMkmD4ZZ_CNNErBNcf6l-46" target="MMkmD4ZZ_CNNErBNcf6l-47">
          <mxGeometry relative="1" as="geometry" />
        </mxCell>
        <mxCell id="MMkmD4ZZ_CNNErBNcf6l-46" value="注册" style="rounded=0;whiteSpace=wrap;html=1;" vertex="1" parent="MMkmD4ZZ_CNNErBNcf6l-27">
          <mxGeometry x="77.63" y="102" width="120" height="28" as="geometry" />
        </mxCell>
        <mxCell id="MMkmD4ZZ_CNNErBNcf6l-47" value="填写用户信息" style="rounded=0;whiteSpace=wrap;html=1;" vertex="1" parent="MMkmD4ZZ_CNNErBNcf6l-27">
          <mxGeometry x="77.63" y="152" width="120" height="28" as="geometry" />
        </mxCell>
        <mxCell id="MMkmD4ZZ_CNNErBNcf6l-33" value="网站系统" style="swimlane;whiteSpace=wrap;strokeColor=#000000;" vertex="1" parent="1">
          <mxGeometry x="720" y="128" width="280" height="570" as="geometry" />
        </mxCell>
        <mxCell id="MMkmD4ZZ_CNNErBNcf6l-36" value="结束" style="rounded=1;whiteSpace=wrap;html=1;strokeColor=#000000;" vertex="1" parent="MMkmD4ZZ_CNNErBNcf6l-33">
          <mxGeometry x="62.87" y="442" width="114.75" height="30" as="geometry" />
        </mxCell>
        <mxCell id="MMkmD4ZZ_CNNErBNcf6l-37" style="edgeStyle=orthogonalEdgeStyle;rounded=0;orthogonalLoop=1;jettySize=auto;html=1;exitX=0.5;exitY=1;exitDx=0;exitDy=0;entryX=0.5;entryY=0;entryDx=0;entryDy=0;strokeColor=#000000;" edge="1" parent="MMkmD4ZZ_CNNErBNcf6l-33" source="MMkmD4ZZ_CNNErBNcf6l-48" target="MMkmD4ZZ_CNNErBNcf6l-36">
          <mxGeometry relative="1" as="geometry">
            <mxPoint x="137.6300000000001" y="476" as="sourcePoint" />
          </mxGeometry>
        </mxCell>
        <mxCell id="MMkmD4ZZ_CNNErBNcf6l-30" value="是否通过" style="rhombus;whiteSpace=wrap;html=1;strokeColor=#000000;" vertex="1" parent="MMkmD4ZZ_CNNErBNcf6l-33">
          <mxGeometry x="80.25" y="252" width="80" height="42" as="geometry" />
        </mxCell>
        <mxCell id="MMkmD4ZZ_CNNErBNcf6l-48" value="存储到数据库" style="rounded=0;whiteSpace=wrap;html=1;" vertex="1" parent="MMkmD4ZZ_CNNErBNcf6l-33">
          <mxGeometry x="60.25" y="362" width="120" height="28" as="geometry" />
        </mxCell>
        <mxCell id="MMkmD4ZZ_CNNErBNcf6l-32" value="是" style="edgeStyle=orthogonalEdgeStyle;rounded=0;orthogonalLoop=1;jettySize=auto;html=1;exitX=0.5;exitY=1;exitDx=0;exitDy=0;strokeColor=#000000;entryX=0.5;entryY=0;entryDx=0;entryDy=0;" edge="1" parent="MMkmD4ZZ_CNNErBNcf6l-33" source="MMkmD4ZZ_CNNErBNcf6l-30" target="MMkmD4ZZ_CNNErBNcf6l-48">
          <mxGeometry x="0.2857" y="15" relative="1" as="geometry">
            <mxPoint x="120" y="333" as="targetPoint" />
            <mxPoint as="offset" />
          </mxGeometry>
        </mxCell>
        <mxCell id="MMkmD4ZZ_CNNErBNcf6l-42" value="用户注册流程" style="rounded=0;whiteSpace=wrap;html=1;" vertex="1" parent="1">
          <mxGeometry x="444.5" y="110" width="555.5" height="18" as="geometry" />
        </mxCell>
        <mxCell id="MMkmD4ZZ_CNNErBNcf6l-50" style="edgeStyle=orthogonalEdgeStyle;rounded=0;orthogonalLoop=1;jettySize=auto;html=1;exitX=0.5;exitY=1;exitDx=0;exitDy=0;" edge="1" parent="1" source="MMkmD4ZZ_CNNErBNcf6l-47" target="MMkmD4ZZ_CNNErBNcf6l-30">
          <mxGeometry relative="1" as="geometry" />
        </mxCell>
        <mxCell id="MMkmD4ZZ_CNNErBNcf6l-53" value="否" style="edgeStyle=orthogonalEdgeStyle;rounded=0;orthogonalLoop=1;jettySize=auto;html=1;exitX=1;exitY=0.5;exitDx=0;exitDy=0;entryX=1;entryY=0.5;entryDx=0;entryDy=0;" edge="1" parent="1" source="MMkmD4ZZ_CNNErBNcf6l-30" target="MMkmD4ZZ_CNNErBNcf6l-47">
          <mxGeometry x="-0.8388" y="10" relative="1" as="geometry">
            <mxPoint as="offset" />
          </mxGeometry>
        </mxCell>
      </root>
    </mxGraphModel>
  </diagram>
</mxfile>
